<svg xmlns="http://www.w3.org/2000/svg" viewBox="0 0 108.43 97.38"><path fill="none" stroke="#005268" stroke-width="2.599" d="M41.27 81.03q5.26 12.32 12.34 14.45c7.08 2.15 16.2-1.3 18.29-11.76S74 67.3 77.35 63.45c2.24-2.56 4.64-4 7.2-4.3"/><path fill="#1eb8e7" fill-rule="evenodd" stroke="#005268" stroke-width="2.599" d="M33.4 62.87l1.37 4-1.75.6 5.57 16.16 7.16-2.46L40.18 65l-1.74.6-1.38-4-3.66 1.27zm51.9-4.78l.27 1.38 3.15-.61.92 4.72 16.78-3.27-2.18-11.22-16.78 3.23 1 5.11-3.16.66z"/><path fill="#1eb8e7" fill-rule="evenodd" stroke="#005268" stroke-width="2.599" d="M7.79 7.22A9 9 0 0 0 1.64 18.3l9.16 31.94A9 9 0 0 0 14 54.9l9.61 7.32a9 9 0 0 0 7.9 1.49L37 62.09a9 9 0 0 0 6-5.42l4.26-11.3a8.86 8.86 0 0 0 .23-5.64L38.3 7.79a9 9 0 0 0-11.08-6.14L7.79 7.22z"/><path fill="#077493" fill-rule="evenodd" stroke="#005268" stroke-width="2.599" d="M7 17.24a1 1 0 0 0-.67 1.21l7.2 25.12a1 1 0 0 0 1.21.67l26.16-7.5a1 1 0 0 0 .67-1.21l-7.19-25.12a1 1 0 0 0-1.21-.67L7 17.24z"/><path fill="#005268" fill-rule="evenodd" d="M103.85 51.6l3.12-.6 1.46 7.5-3.13.59z"/></svg>